<svg width="250" height="68" viewBox="0 0 250 68" fill="none" xmlns="http://www.w3.org/2000/svg">
<path d="M146.61 32.6188C145.898 32.6188 145.214 32.8313 144.557 33.2471C143.891 33.6628 143.197 34.3003 142.458 35.1411L141.537 39.3912C141.692 40.4814 142.066 41.3869 142.668 42.0983C143.27 42.819 143.964 43.1701 144.767 43.1701C145.414 43.1701 146.044 42.9853 146.655 42.6065C147.267 42.2277 147.823 41.738 148.316 41.1374C148.809 40.5276 149.201 39.8254 149.493 39.0124C149.785 38.1993 149.931 37.3585 149.931 36.49C149.931 35.3074 149.648 34.365 149.073 33.6628C148.507 32.9699 147.686 32.6188 146.61 32.6188Z" fill="#43F98D"/>
<path d="M238.041 19.1478C238.041 19.1478 237.12 23.7397 238.379 17.1059C239.638 10.4721 233.507 10.0471 233.507 10.0471C233.507 10.0471 226.864 10.1302 223.26 10.1302C219.647 10.1302 218.644 14.214 218.644 14.214L217.302 20.3397H194.784C194.784 20.3397 193.188 26.2066 195.286 17.9559C197.385 9.70524 191.755 9.9547 191.755 9.9547C191.755 9.9547 170.578 9.9547 166.381 9.9547C162.184 9.9547 160.916 14.2048 160.916 14.2048L159.903 19.5636C159.903 19.5636 96.2453 19.5636 75.4426 19.5636C75.1415 19.5543 74.813 19.5451 74.4572 19.5451C68.9007 19.5451 64.6033 18.538 61.419 17.3277C61.1635 17.069 60.8898 16.8103 60.607 16.57L45.0232 3.22849C41.3462 0.0778812 36.2915 -0.846052 31.7661 0.807784L12.5509 7.80194C8.02544 9.44654 4.70427 13.4194 3.84662 18.2146L0.215287 38.5688C-0.642368 43.364 1.1003 48.2609 4.76815 51.4115L20.3611 64.7715C24.038 67.9221 29.0927 68.8461 33.6182 67.1922L47.2951 62.2122C51.9392 60.6877 65.6434 56.4469 76.0447 56.0681C85.8074 56.0589 97.8876 55.9942 97.8876 55.9942C97.8876 65.7786 103.855 65.6954 103.855 65.6954C103.855 65.6954 127.887 65.6954 134.858 65.6954C141.829 65.6954 142.422 61.9535 142.422 61.9535L143.763 55.7447C143.763 55.7447 233.753 55.7447 239.72 55.7447C245.687 55.7447 246.444 50.3859 246.444 50.3859L249.893 33.0253C251.317 17.4478 238.041 19.1478 238.041 19.1478ZM36.7568 21.975C42.2495 24.0169 45.5707 29.8839 44.3207 35.8433C43.0707 41.8026 37.6784 45.8032 31.8391 45.3967L33.4905 37.5248C35.0872 37.1922 36.4102 35.9356 36.7751 34.2171C37.1309 32.4986 36.4284 30.8078 35.1054 29.8469L36.7568 21.975ZM26.1183 56.0773L10.2334 41.5901L9.99623 41.3776L9.52176 40.9434L14.5764 16.8657L35.8171 9.87155L34.1748 17.7157C26.4103 16.9211 19.1384 22.1598 17.4779 30.0687C15.8173 37.9775 20.3611 45.757 27.7697 48.2332L26.1183 56.0773ZM28.5088 44.6853C23.0161 42.6434 19.695 36.7764 20.945 30.8171C22.195 24.8577 27.5873 20.8571 33.4266 21.2636L31.7752 29.1355C30.1785 29.4681 28.8555 30.7247 28.4905 32.4432C28.1347 34.1617 28.8372 35.8525 30.1602 36.8134L28.5088 44.6853ZM50.6983 49.8038L29.4577 56.798L31.1 48.9538C38.8645 49.7484 46.1363 44.5097 47.7969 36.6009C49.4575 28.692 44.9137 20.9125 37.505 18.4364L39.1473 10.5922L55.7439 25.7262L50.6983 49.8038ZM92.8055 50.1919L95.716 36.3606C95.8073 35.8617 95.8529 35.409 95.8529 35.0025C95.8529 34.2818 95.707 33.7552 95.415 33.4133C95.123 33.0715 94.7763 32.8959 94.3748 32.8959C94.0646 32.8959 93.7179 32.9883 93.3347 33.1731C92.9515 33.3579 92.5683 33.6073 92.1851 33.9215C91.8019 34.2356 91.4278 34.5959 91.0811 35.021C90.7253 35.446 90.415 35.8987 90.1322 36.3976L87.2673 50.1827H78.4991L81.4096 36.3514C81.5009 35.8525 81.5465 35.3998 81.5465 34.9932C81.5465 34.2726 81.4006 33.7459 81.1086 33.4041C80.8166 33.0622 80.4517 32.8867 80.0228 32.8867C79.7126 32.8867 79.3659 32.9791 78.9827 33.1638C78.5995 33.3486 78.2163 33.5981 77.833 33.9122C77.4498 34.2264 77.0757 34.5959 76.729 35.0302C76.3732 35.4644 76.0721 35.9172 75.8258 36.3884L72.9152 50.1734H64.1471L69.3112 25.5969H77.2035L76.4188 29.2371C77.4955 27.8974 78.8458 26.8811 80.4608 26.1789C82.0757 25.4767 83.7636 25.1256 85.5154 25.1256C86.5282 25.1256 87.3767 25.2458 88.0519 25.4767C88.7271 25.7077 89.2745 26.0219 89.6942 26.4099C90.1139 26.798 90.415 27.2507 90.6158 27.7681C90.8165 28.2855 90.9442 28.8214 91.0081 29.3757C92.0847 28.036 93.4168 26.992 95.0044 26.2436C96.592 25.4952 98.2434 25.1256 99.9678 25.1256C101.072 25.1256 101.975 25.2827 102.669 25.5969C103.362 25.911 103.919 26.3175 104.329 26.8164C104.74 27.3154 105.032 27.8882 105.187 28.5442C105.342 29.2002 105.415 29.8654 105.415 30.5491C105.415 30.8263 105.388 31.2513 105.342 31.8149C105.296 32.3785 105.178 33.1084 104.995 34.0139L101.583 50.1827H92.8055V50.1919ZM123.261 45.3782L119.566 51.4022C118.462 53.2039 117.358 54.7284 116.263 55.9572C115.168 57.1861 114.028 58.1839 112.851 58.9508C111.665 59.7176 110.406 60.2627 109.064 60.6138C107.723 60.9557 106.254 61.1312 104.658 61.1312L103.645 54.5436C104.502 54.5436 105.251 54.5159 105.88 54.4512C106.51 54.3865 107.075 54.2757 107.568 54.1001C108.061 53.9246 108.499 53.7028 108.882 53.4257C109.265 53.1485 109.639 52.7697 110.013 52.3077L111.355 50.7185L108.17 25.6246H117.075L117.632 42.6803L119.201 40.0656C120.305 38.1993 121.318 36.028 122.221 33.5704C123.125 31.1127 123.845 28.461 124.365 25.6246H132.759C132.331 27.1213 131.884 28.5257 131.418 29.8562C130.953 31.1774 130.369 32.5725 129.666 34.0416C128.955 35.5014 128.088 37.146 127.057 38.9477C126.035 40.7401 124.767 42.8836 123.261 45.3782ZM158.051 41.0542C157.339 42.939 156.391 44.5929 155.186 46.0065C153.991 47.4201 152.613 48.5565 151.053 49.3973C149.502 50.2381 147.896 50.6631 146.226 50.6631C144.566 50.6631 143.206 50.312 142.139 49.6098C141.081 48.9076 140.378 47.8913 140.04 46.5516L137.175 60.1519H128.407L135.652 25.6153H143.261L142.477 29.3111C143.553 27.9714 144.758 26.9458 146.099 26.2251C147.44 25.5045 148.982 25.1534 150.734 25.1534C152.029 25.1534 153.188 25.4028 154.219 25.9018C155.25 26.4007 156.126 27.0844 156.847 27.9621C157.568 28.8306 158.124 29.8747 158.507 31.0942C158.891 32.3138 159.082 33.6351 159.082 35.0672C159.119 37.1645 158.763 39.1694 158.051 41.0542ZM168.206 50.1919H159.438L164.602 25.6153H173.37L168.206 50.1919ZM165.022 23.555L166.591 16.0804H175.359L173.79 23.555H165.022ZM186.39 42.6157C186.764 42.6157 187.23 42.5417 187.795 42.4031C188.361 42.2646 188.954 42.0705 189.575 41.8211V48.8337C188.224 49.3604 186.828 49.8038 185.396 50.1642C183.963 50.5245 182.604 50.7001 181.308 50.7001C180.478 50.7001 179.711 50.6169 179 50.4414C178.288 50.2658 177.668 49.9794 177.129 49.5729C176.591 49.1663 176.171 48.6582 175.879 48.0299C175.587 47.4109 175.442 46.6255 175.442 45.6924C175.442 45.3505 175.46 45.0086 175.487 44.6668C175.514 44.3249 175.578 43.9461 175.67 43.5488L178.024 32.2861H175.213L176.646 25.6061H179.456L181.071 17.9005H189.839L188.224 25.6061H192.658L191.272 32.2861H186.792L185.086 40.4167C185.058 40.5738 185.031 40.7216 185.013 40.8602C184.994 40.9988 184.985 41.1374 184.985 41.2575C185.003 42.1722 185.46 42.6157 186.39 42.6157ZM209.757 47.7712C207.604 49.0185 205.113 49.6375 202.284 49.6375C200.532 49.6375 199 49.3604 197.695 48.7968C196.39 48.2332 195.304 47.4848 194.438 46.5516C193.58 45.6184 192.932 44.5282 192.503 43.2809C192.074 42.0336 191.856 40.7124 191.856 39.308C191.856 37.4047 192.22 35.5476 192.96 33.7274C193.699 31.9073 194.757 30.2812 196.144 28.8676C197.531 27.454 199.191 26.3083 201.125 25.4305C203.06 24.562 205.231 24.1186 207.631 24.1186C210.496 24.1186 212.74 24.7376 214.364 25.9849C215.998 27.2322 217.083 28.8306 217.64 30.7986L208.552 33.4133C208.06 32.203 207.211 31.5932 206.016 31.5932C205.368 31.5932 204.748 31.7595 204.146 32.0828C203.543 32.4062 203.005 32.8682 202.531 33.4595C202.056 34.0508 201.673 34.7622 201.399 35.5845C201.125 36.4068 200.98 37.3215 200.98 38.3194C200.98 39.502 201.235 40.4352 201.737 41.1189C202.239 41.8026 202.932 42.1445 203.79 42.1445C204.958 42.1445 206.052 41.5347 207.065 40.3243L215.049 42.939C213.68 44.9162 211.91 46.5239 209.757 47.7712ZM244.318 32.3415C244.245 32.9329 244.145 33.4965 244.017 34.0231L240.651 50.1919H231.882L234.793 36.3606C234.884 35.8894 234.93 35.4737 234.93 35.0949C234.93 34.3188 234.757 33.7552 234.401 33.4133C234.045 33.0715 233.598 32.8959 233.041 32.8959C232.795 32.8959 232.494 32.9791 232.138 33.1546C231.782 33.3302 231.408 33.5611 231.007 33.8568C230.605 34.1524 230.213 34.522 229.83 34.9563C229.446 35.3905 229.1 35.871 228.789 36.4068L225.879 50.1919H217.111L224.264 16.0804H233.032L230.268 29.2556C231.344 27.9159 232.603 26.8996 234.054 26.1974C235.496 25.4952 237.037 25.1441 238.671 25.1441C239.811 25.1441 240.751 25.292 241.508 25.5876C242.266 25.8833 242.85 26.2898 243.287 26.798C243.716 27.3154 244.017 27.8974 244.191 28.5534C244.355 29.2094 244.446 29.8747 244.446 30.5584C244.437 31.1589 244.401 31.7502 244.318 32.3415Z" fill="#43F98D"/>
</svg>
